<?xml version="1.0" standalone="no"?>
<!DOCTYPE svg PUBLIC "-//W3C//DTD SVG 20010904//EN"
 "http://www.w3.org/TR/2001/REC-SVG-20010904/DTD/svg10.dtd">
<svg version="1.0" xmlns="http://www.w3.org/2000/svg"
 width="223.000000pt" height="206.000000pt" viewBox="0 0 223.000000 206.000000"
 preserveAspectRatio="xMidYMid meet">

<g transform="translate(0.000000,206.000000) scale(0.100000,-0.100000)"
fill="#ffffff" stroke="none">
<path d="M978 1820 c-207 -35 -411 -163 -533 -335 -59 -83 -90 -149 -120 -252
-85 -290 -6 -594 209 -808 269 -268 660 -320 996 -132 100 56 240 196 297 298
149 264 146 583 -8 846 -43 74 -197 228 -271 271 -174 102 -383 143 -570 112z
m318 -172 c4 -6 -2 -19 -14 -29 -27 -21 -28 -29 -3 -29 10 0 56 -19 102 -42
150 -74 273 -222 314 -378 21 -79 20 -110 -5 -110 -13 0 -21 9 -25 28 -21 96
-30 124 -62 182 -41 76 -88 131 -155 182 -51 39 -134 82 -182 94 l-28 7 17
-26 c17 -27 13 -47 -10 -47 -14 0 -85 90 -85 109 0 14 89 71 112 71 9 0 20 -5
24 -12z m-241 -62 c0 -15 -12 -22 -59 -33 -182 -41 -336 -174 -401 -347 -30
-80 -30 -84 -6 -62 21 19 52 18 58 -1 5 -14 -85 -82 -109 -83 -19 0 -83 104
-73 120 10 16 34 11 47 -10 11 -17 14 -14 34 40 67 185 236 339 422 385 70 17
87 15 87 -9z m246 -173 c78 -39 108 -68 90 -86 -9 -9 -18 -8 -42 5 -29 17 -30
17 -25 0 16 -58 17 -83 2 -104 -23 -32 -20 -94 6 -139 25 -44 24 -44 69 -25
65 26 89 0 90 -98 1 -87 16 -53 18 40 1 75 -18 142 -62 215 -35 58 -37 79 -8
79 19 0 75 -87 96 -147 72 -209 -28 -439 -234 -541 -73 -36 -78 -37 -187 -37
-110 0 -112 0 -189 40 -84 43 -108 66 -88 86 9 9 23 4 61 -20 59 -38 70 -38
78 -6 7 30 -6 48 -59 82 -43 27 -68 74 -60 115 4 22 0 29 -27 43 -17 9 -49 32
-71 52 -33 30 -39 32 -39 16 0 -41 33 -140 60 -184 35 -54 37 -69 10 -69 -45
0 -120 178 -120 284 0 148 104 322 233 388 78 40 118 48 227 45 96 -2 112 -5
171 -34z m436 -504 c38 -62 39 -67 17 -76 -11 -4 -23 2 -34 17 l-18 24 -12
-44 c-36 -138 -171 -293 -314 -361 -87 -42 -183 -66 -199 -50 -18 18 2 38 44
45 68 11 172 59 236 109 86 68 150 159 189 270 13 36 13 39 -4 32 -27 -12 -55
-11 -59 2 -5 13 97 94 112 90 5 -2 24 -28 42 -58z m-1167 -11 c36 -139 100
-246 193 -319 53 -43 148 -92 201 -105 l28 -7 -17 27 c-20 29 -9 53 18 43 21
-8 80 -96 74 -110 -3 -7 -30 -25 -60 -42 -46 -24 -59 -27 -69 -17 -11 11 -9
17 11 33 l24 20 -22 6 c-13 3 -58 23 -101 43 -139 68 -251 194 -306 346 -30
82 -32 124 -4 124 14 0 22 -11 30 -42z"/>
<path d="M1025 1396 c-170 -42 -307 -201 -280 -325 8 -36 56 -85 110 -113 52
-27 57 -35 50 -81 -6 -40 5 -55 81 -113 24 -18 29 -31 34 -80 5 -56 7 -59 33
-62 24 -3 41 10 117 89 50 51 90 96 90 101 0 13 -63 48 -87 48 -12 0 -49 23
-83 51 -59 50 -62 51 -110 46 -86 -10 -180 38 -180 93 0 16 -4 32 -10 35 -18
11 -11 74 10 95 24 24 38 25 68 4 15 -10 22 -11 22 -3 0 6 27 38 60 71 33 32
60 65 60 73 0 8 12 17 28 21 48 10 52 13 52 39 0 28 3 28 -65 11z"/>
<path d="M1140 1391 c0 -40 -29 -81 -60 -88 -17 -3 -30 -9 -30 -14 0 -5 -26
-35 -57 -66 -32 -32 -63 -71 -69 -87 -5 -16 -20 -33 -32 -37 -19 -7 -26 -3
-41 22 -24 39 -36 22 -17 -23 8 -18 17 -41 20 -51 9 -27 69 -48 116 -41 56 9
81 0 138 -49 29 -24 70 -48 95 -54 58 -16 107 -57 107 -90 0 -17 -18 -44 -55
-82 -112 -116 -114 -127 -11 -91 71 24 150 81 165 117 28 71 49 221 35 257 -5
14 -9 14 -34 1 -43 -22 -65 -18 -96 18 -54 64 -67 132 -39 199 11 27 12 44 4
71 -12 44 -60 97 -87 97 -11 0 -27 3 -36 6 -12 4 -16 0 -16 -15z"/>
</g>
</svg>
